<?xml version="1.0" standalone="no"?>
<!DOCTYPE svg PUBLIC "-//W3C//DTD SVG 20010904//EN"
 "http://www.w3.org/TR/2001/REC-SVG-20010904/DTD/svg10.dtd">
<svg version="1.0" xmlns="http://www.w3.org/2000/svg"
 width="128.000000pt" height="128.000000pt" viewBox="0 0 128.000000 128.000000"
 preserveAspectRatio="xMidYMid meet">

<g transform="translate(0.000000,128.000000) scale(0.100000,-0.100000)"
fill="#000000" stroke="none">
<path d="M780 1125 c-10 -12 -5 -23 28 -62 99 -119 149 -244 159 -393 9 -155
-50 -332 -151 -448 -51 -60 -53 -64 -30 -83 15 -12 22 -7 63 37 109 121 161
251 169 426 8 204 -49 368 -177 506 -33 36 -43 39 -61 17z"/>
<path d="M641 986 c-9 -11 -4 -23 25 -57 141 -167 144 -401 7 -577 -39 -50
-42 -57 -28 -71 21 -22 41 -7 91 67 57 83 85 161 91 257 9 128 -34 261 -112
353 -39 44 -55 51 -74 28z"/>
<path d="M504 846 c-3 -8 6 -30 20 -49 38 -50 56 -101 56 -159 -1 -64 -17
-113 -54 -161 -46 -60 -15 -93 37 -39 57 59 86 168 67 255 -21 105 -105 207
-126 153z"/>
<path d="M332 674 c-27 -19 -28 -48 -2 -74 26 -26 36 -25 66 5 21 21 23 28 13
47 -21 41 -42 47 -77 22z"/>
</g>
</svg>
