<?xml version="1.0" standalone="no"?>
<!DOCTYPE svg PUBLIC "-//W3C//DTD SVG 20010904//EN"
 "http://www.w3.org/TR/2001/REC-SVG-20010904/DTD/svg10.dtd">
<svg version="1.0" xmlns="http://www.w3.org/2000/svg"
 width="128.000000pt" height="128.000000pt" viewBox="0 0 128.000000 128.000000"
 preserveAspectRatio="xMidYMid meet">

<g transform="translate(0.000000,128.000000) scale(0.100000,-0.100000)"
fill="#000000" stroke="none">
<path d="M689 1108 c-128 -138 -185 -302 -177 -506 8 -175 60 -305 169 -426
41 -44 48 -49 63 -37 23 19 21 23 -30 83 -26 29 -64 89 -85 133 -116 238 -81
499 93 708 33 39 38 50 28 62 -18 22 -28 19 -61 -17z"/>
<path d="M815 958 c-78 -92 -121 -225 -112 -353 6 -96 34 -174 91 -257 50 -74
70 -89 91 -67 14 14 11 21 -28 71 -137 176 -134 410 7 577 29 34 34 46 25 57
-19 23 -35 16 -74 -28z"/>
<path d="M960 830 c-88 -124 -85 -296 7 -392 52 -54 83 -21 37 39 -73 96 -73
222 2 320 14 19 23 41 20 48 -9 25 -43 17 -66 -15z"/>
<path d="M332 674 c-27 -19 -28 -48 -2 -74 26 -26 36 -25 66 5 21 21 23 28 13
47 -21 41 -42 47 -77 22z"/>
</g>
</svg>
